
<global>
amp_veltrack=0
</global>

<group>
amp_veltrack=0
ampeg_attack=2.5
ampeg_release=0.35
group_label=Sustain_PP
lpc_hicc1=42
lpc_locc1=0

<region>
hivel=127
key=C#5
loop_end=268738
loop_mode=loop_continuous
loop_start=59636
loop_xfade=25337
lovel=0
lpc=vvcrQlhE08JiotNCjIuQwmNiV0IbkQHC0eguQXJF5cAmyZpBJgPewepo9UHpiozB3TpOwY8fkkGTxkHBTyK3QTp3k8HLya3ACC3WQVH22cGcLXRBUxeuwCj4fMBUeqxA
lpc_rms=-27.66
offset=4571
sample=Tenor_sustain_PP_C#5.opus
</region>

<region>
hivel=127
key=C5
loop_end=260221
loop_mode=loop_continuous
loop_start=57745
loop_xfade=24534
lovel=0
lpc=IHoKQoKMocLI2oxCZg30wb0PhEHIIejAHChdwaBAiEGfbvi/c04EwVwQREEDJBrAN0J5wURtiEE8Tf/AMVmtQEbl3r8VHLzA3ZIUQe15+MAXMcZAUk44vxgngMCh90dA
lpc_rms=-23.47
offset=5212
sample=Tenor_sustain_PP_C5.opus
</region>

<region>
hikey=F5
hivel=127
lokey=D5
loop_end=253203
loop_mode=loop_continuous
loop_start=56188
loop_xfade=23872
lovel=0
lpc=fiNUQpPEAsMF6O5C6/5uwodGKUL9/7LBHIzhwIA+A74DjXtBMBthwQkyMEFVUe4/kTvLwcmiHEKexcrBF+6zQAINhj0ld/I/rnQhwVpCNEF1DCVAQSdQwIat6sB5YNxA
lpc_rms=-25.35
offset=990
pitch_keycenter=D5
sample=Tenor_sustain_PP_D5.opus
</region>

<region>
hivel=127
key=A#4
loop_end=257861
loop_mode=loop_continuous
loop_start=57222
loop_xfade=24312
lovel=0
lpc=+hx9QusbJcMqiDlDS6UOw41V0EINg2DCe9qbQQQ4JsJQiaBCcvCdwiS7fUKWjSvCW68qQN09UEGw5Z1AqRvgwNTbrMCnfUNBi7+vwWSz0UGkoxjAzOS3wY9WkkFlRCnA
lpc_rms=-22.14
offset=865
sample=Tenor_sustain_PP_A#4.opus
</region>

<region>
hivel=127
key=A4
loop_end=249959
loop_mode=loop_continuous
loop_start=55468
loop_xfade=23567
lovel=0
lpc=8lQmQtGqxcI3VMtCGeacwgwHY0KyMOTBHdnBQOvsBcFeb9hBGpL7wTkd1kFt5YTBWpenv4o6T0GUkYDBBm4cQTJKET7rUwjBR+7FQEoFmkAV34nAH2XlQHXBVsGcdudA
lpc_rms=-25.27
offset=829
sample=Tenor_sustain_PP_A4.opus
</region>

<region>
hivel=127
key=B4
loop_end=266292
loop_mode=loop_continuous
loop_start=59093
loop_xfade=25106
lovel=0
lpc=dlV9QeG8EcKLqxRCv+biwRQyukGAMS3B4CCRv2NQAkCWkmm/d6vsvajsXUAoU5y/284BwcHpRkG62x/BsiD2QMwPnL/5JBrBRwlZQQDARsEfS19BEz0DwYY53r9pt2RA
lpc_rms=-30.07
offset=2067
sample=Tenor_sustain_PP_B4.opus
</region>

<region>
hivel=127
key=F#4
loop_end=257011
loop_mode=loop_continuous
loop_start=57033
loop_xfade=24231
lovel=0
lpc=ZSoxQgsB2cLZ9+1C/Z/Qworbu0KOKYnCceUaQj3UFcI8NyNCnYffwSYts0Fcaf7AZ4mgwRj690GV8LzB0J1uQbGud79EwXzBKDZ6QVq5VMFjoXZBigDYwJtD8T126dg+
lpc_rms=-27.14
offset=1596
sample=Tenor_sustain_PP_F#4.opus
</region>

<region>
hivel=127
key=G#4
loop_end=271127
loop_mode=loop_continuous
loop_start=60166
loop_xfade=25562
lovel=0
lpc=9xo9Qltt68Kd7u5ChyOawtTNQUKXqMDBAYbHQHdkdcEtfehBzbuywdPgLkFR0z5AdYugwaUroUGefQjBheOGQPyzFkCPfT3BQNvTP3TsHkGsYNLALjwJQQOgIcFb7JRA
lpc_rms=-23.58
offset=2878
sample=Tenor_sustain_PP_G#4.opus
</region>

<region>
hivel=127
key=G4
loop_end=281222
loop_mode=loop_continuous
loop_start=94876
loop_xfade=26514
lovel=0
lpc=AivrQd6EmsLUQqNCy5RrwjSfR0JCwRXC1XOIQYV3ZcGwjrBBkt6SweX2XUHOOvzA1ksGwfxnmEHnPG3BH8NBQdH2cMF7jBxBs+/KvSz4m8AMKtdAbNatwLEd4T9ugzM+
lpc_rms=-30.95
offset=66917
sample=Tenor_sustain_PP_G4.opus
</region>

<region>
hivel=127
key=C#4
loop_end=260162
loop_mode=loop_continuous
loop_start=57732
loop_xfade=24529
lovel=0
lpc=EIVKQkWB3cKr/8lCKm2rwjHanEIzkFzCVKcJQursI8I/cSVCsO2WwaCchkEpN7i/5A2hwfNTn0GwL1TBVlsmQQ89HsFx4M5AdK/EwBGXlEABkC3AJq6hQBkwJMGGv9RA
lpc_rms=-24.83
offset=4365
sample=Tenor_sustain_PP_C#4.opus
</region>

<region>
hivel=127
key=D#4
loop_end=275238
loop_mode=loop_continuous
loop_start=61078
loop_xfade=25950
lovel=0
lpc=rUpXQibTA8P9NwpDXxzlwi9/tEKtSk7CanycQcx9m8F3ARpCJq8HwoLPokH5KAPBdpf5wN9/dUGIom3BCo4hQT2o3sAsJwZBVeOWwSg3q0EUseHAigABQESLh8CDn/0/
lpc_rms=-24.09
offset=3271
sample=Tenor_sustain_PP_D#4.opus
</region>

<region>
hivel=127
key=D4
loop_end=268919
loop_mode=loop_continuous
loop_start=59676
loop_xfade=25354
lovel=0
lpc=Jcp1Ql0SDcMkv/9CIObCwspDpkK3xkfCgIX8QfxyHsLoXz9CqjEHwj5Nl0FC5C7A3FJmwRRgLUFVdtDAI+CnQBLsmcB6UwlBgk4Vwdh/Jb7kCS5BTIBOwAaEhcDvycg/
lpc_rms=-24.41
offset=2147
sample=Tenor_sustain_PP_D4.opus
</region>

<region>
hivel=127
key=E4
loop_end=267347
loop_mode=loop_continuous
loop_start=59327
loop_xfade=25206
lovel=0
lpc=PKXbQkZKiMMOc5NDPgiCw5a1WkNBhg3DFIeiQsmImsIRX6ZCOnmCwuAhlEKC6G3CRfEHQew2iEGwVqTBZcTiQfh9xcGg74NBAtz8wf89KkL3yxLCBUzhQUz82cE53HVB
lpc_rms=-18.50
offset=4140
sample=Tenor_sustain_PP_E4.opus
</region>

<region>
hivel=127
key=F4
loop_end=254792
loop_mode=loop_continuous
loop_start=56541
loop_xfade=24022
lovel=0
lpc=ZMSIQtxELsO6/UBD0Wgew/R36UKh127Czeq0Qb0I7cHyox1CU735wRIO8UHlpfnAy0v8wcAnHkKTScLBI3HSQF0JvkB8ZjLAnI+GwX348UEU0cjB0Tp9QeUlA8F6SS5A
lpc_rms=-21.29
offset=7985
sample=Tenor_sustain_PP_F4.opus
</region>

<region>
hivel=127
key=A#3
loop_end=262967
loop_mode=loop_continuous
loop_start=58355
loop_xfade=24793
lovel=0
lpc=/o9+QoP9G8PxohRDqfDRwpJno0KBgCTCF8wtQeBIjMHOJORBlJyYwa8YbkERuve/2ZGIwUijJEEcM5m/D59aP8hEeMBx014/bdOHQBzmAMGB2ZtB09ufwVzqLEEe72rA
lpc_rms=-24.15
offset=4185
sample=Tenor_sustain_PP_A#3.opus
</region>

<region>
hivel=127
key=A3
loop_end=262177
loop_mode=loop_continuous
loop_start=58179
loop_xfade=24719
lovel=0
lpc=6zqhQk4KSsMI7T1DlaLrwvKiv0LU0InCBkevQcnr1cCfS49BkCUFwTJIncCNVAxBe+djwYDAYEGAy+nAXocVvozSC8FoFplBAwBZwHf1MMG4CFVBuEyHwfUKREGf5DfA
lpc_rms=-22.27
offset=3396
sample=Tenor_sustain_PP_A3.opus
</region>

<region>
hivel=127
key=B2
loop_end=238028
loop_mode=loop_continuous
loop_start=52821
loop_xfade=22442
lovel=0
lpc=ua3BQcRKN8IjDA9Cp8HJwfg2kUH/7EbBq2WhQDpig8BwNGJAKRz3v6NPdkBkkI1AzjE+wZbcQUHRCeTAQUp+QCp4OMA1II0/J3pOPhjaab99Nhi9fGCpPjjTfb51KQU+
lpc_rms=-28.93
sample=Tenor_sustain_PP_B2.opus
</region>

<region>
hivel=127
key=B3
loop_end=250555
loop_mode=loop_continuous
loop_start=55600
loop_xfade=23623
lovel=0
lpc=MWFzQo+yEcM5zQ1DYzbOwjDFokL85DzCu2AsQZyurMBjAnVBNgnmwFMCy8AGG6RB6cz6wVFLyEF+yUXBbizjv0RPkUDarbg/3Mk/vYQuu8AR4lBB/tVfwc8LCEE7gQvA
lpc_rms=-23.43
offset=509
sample=Tenor_sustain_PP_B3.opus
</region>

<region>
hivel=127
key=C#3
loop_end=248159
loop_mode=loop_continuous
loop_start=55069
loop_xfade=23397
lovel=0
lpc=akHCQSylPcIIKhdC+MzWwSB3q0Fq9InBF2I4QQ8tRsFdx0FB9d0kwR6MWUFgcnnANsV9wDmaP0Bgtru9LQRFP+uoAMD1b2A+hf9APzdMLcCinwRA5bJuv7tTcz64QuU+
lpc_rms=-31.67
offset=4357
sample=Tenor_sustain_PP_C#3.opus
</region>

<region>
hivel=127
key=C3
loop_end=251406
loop_mode=loop_continuous
loop_start=55789
loop_xfade=23703
lovel=0
lpc=S4IiQiDmosLL2oFCXOE/wgMwCUIS8pnB8P8eQd4YK8FnhUxBe7DqwEtCPUE9WyFA42x8wSZUPUGGO8jAHUbsvvTkNEC4QVDAGJkLwAyfxz942aI/GYG1PQiNNUB1UxbA
lpc_rms=-26.08
offset=4240
sample=Tenor_sustain_PP_C3.opus
</region>

<region>
hivel=127
key=C4
loop_end=268475
loop_mode=loop_continuous
loop_start=59577
loop_xfade=25312
lovel=0
lpc=gO/QQrkgf8MGPHVDj3wsw3HuAUM+7JnCvifiQSO74cEk1SVC5QZRwW3ckkBu+jVBQOouwjnAIkIL75rB3sIIQW6ZgsBsnyrB/KihQdnL98Gp8A1CDXWTwUjYKT93wC1A
lpc_rms=-21.21
offset=4226
sample=Tenor_sustain_PP_C4.opus
</region>

<region>
hivel=127
key=D#3
loop_end=250948
loop_mode=loop_continuous
loop_start=55688
loop_xfade=23660
lovel=0
lpc=2m4IQhNQmcJkzIhCQlg/woSsE0LmDZnBJREHQHnCH8AL3aRAoyB4QJIVG8A+3ihAnX5KwdiQY0E6gxzBFyyTQIfPN77FSIC/dCDIPm93sb+Qc3hAjZ62wCexrEAIvALA
lpc_rms=-26.97
offset=5615
sample=Tenor_sustain_PP_D#3.opus
</region>

<region>
hivel=127
key=D3
loop_end=255367
loop_mode=loop_continuous
loop_start=56668
loop_xfade=24076
lovel=0
lpc=1cQjQvFVusKuX6lCP/Fpwn5xLUIFP8rBNT36QDyJ5MD6rRdBFShqP/sxDr4Deo5ARAiawSsrrEEROnDBKmnZQKAa8b9ydsS/m2MjQPiCesAonchAQTBKwKqpIEAAPAjA
lpc_rms=-26.27
offset=3399
sample=Tenor_sustain_PP_D3.opus
</region>

<region>
hivel=127
key=E3
loop_end=246816
loop_mode=loop_continuous
loop_start=54771
loop_xfade=23270
lovel=0
lpc=GH1sQnBvCMOnB/NC5Qqlwv56gkJODRHCLUE9QTJuhcFKELFBaL7rwIDrjEDlgsVAa2DlwUR46EGjT1rBYisvQMP9i0BnlA/Be38gP9r2S0D39JNAdb6zwI1YOEBP5I+/
lpc_rms=-24.64
offset=7345
sample=Tenor_sustain_PP_E3.opus
</region>

<region>
hivel=127
key=F#3
loop_end=261148
loop_mode=loop_continuous
loop_start=57951
loop_xfade=24621
lovel=0
lpc=omKOQp3VI8OC6AxDWjOrwsC4f0JlFBrCLLWvQfk0E8I0iwtCmMo1wRx+WUHvEoBAduT6wZJPm0GegVE/89d0QL8DgcGW/JxBe6aRwRaQ30CRNBZAOlQewMTH9T8u5l2/
lpc_rms=-24.07
offset=6115
sample=Tenor_sustain_PP_F#3.opus
</region>

<region>
hivel=127
key=F3
loop_end=263287
loop_mode=loop_continuous
loop_start=58426
loop_xfade=24823
lovel=0
lpc=XC9WQgpoAcMcmfdC+5qtwshmhUKnASXCKVqUQbRaacHHwHpB0IhDwUoLg0FSnEc/X5DcwZ7Mq0EAUovAGgEPwK4AkD9gAyFA5vqKv5TNncDAo7xATCcMwEPNSUDEzyfA
lpc_rms=-26.86
offset=5397
sample=Tenor_sustain_PP_F3.opus
</region>

<region>
hivel=127
key=G#3
loop_end=253759
loop_mode=loop_continuous
loop_start=56311
loop_xfade=23925
lovel=0
lpc=zBctQih0zMIZz79CPBCKws8ETkKh6dXB/l1uQb1+usEqUsdBDYDOwOjfEUBxyNO/D/dEwe5gRkFb1TTA+0Clv897+bsFd8o+gisSwGs1s0ABbAa/YGuLwAqMk0CK7RrA
lpc_rms=-28.11
offset=4652
sample=Tenor_sustain_PP_G#3.opus
</region>

<region>
hivel=127
key=G3
loop_end=269583
loop_mode=loop_continuous
loop_start=59823
loop_xfade=25417
lovel=0
lpc=HueLQn+jHsM/ZQxDDkXPwhddsELJQlHCSdL6QSJCBMLJ5ohBFzSSQOmdjECjgI1A2ofNwU3Ea0Hrg/DANet9QX2+rcH8WH9BoweEwG+4D8E8Z2tBvEIlwdTPJkHBK7bA
lpc_rms=-25.95
offset=3852
sample=Tenor_sustain_PP_G3.opus
</region>

<region>
hivel=127
key=A#2
loop_end=259369
loop_mode=loop_continuous
loop_start=57556
loop_xfade=24454
lovel=0
lpc=MkcCQsDMjsLHxndCcz0ewv7C5UF8eq7B6xZeQYFsUcEdljxBjUqAwDfyOEDxgfFA+faZwbSYi0HAxSXBtl2QQPvgob/7agjALXQBQF2SDMCUJkxAC+NkwPH6qkD3LDLA
lpc_rms=-23.37
offset=3999
sample=Tenor_sustain_PP_A#2.opus
</region>
</group>

<group>
amp_veltrack=0
ampeg_attack=2.5
ampeg_release=0.35
group_label=Sustain_MF
lpc_hicc1=84
lpc_locc1=43

<region>
hivel=127
key=A#4
loop_end=241156
loop_mode=loop_continuous
loop_start=53515
loop_xfade=22737
lovel=0
lpc=VPWxQf54YcL5mXVCnxIgwiDykkEDzAlAqMmpwUmAzEGI/GTBvDgBQAdcKEFtkJfB5A0mQdE6gL8o3HFAzoqXwNKgVb+sOl9AoyDQvdGdAsD+IR5AgYDdvxUXpb+e5xpA
lpc_rms=-18.78
offset=851
sample=Tenor_sustain_MF_A#4.opus
</region>

<region>
hivel=127
key=A4
loop_end=251518
loop_mode=loop_continuous
loop_start=55814
loop_xfade=23714
lovel=0
lpc=UrzaQQQqisLQlpFCPJVHwtClCEIj1IXBCliCwOnNhkAfBiBBJBk8wat9pkDXDgJAcfJMwUEvnUGMUoTB9qU1QUmwEcH1phlA2ExgQJArMMBYE79Av6AjwYoB6EAVjqm/
lpc_rms=-18.58
offset=814
sample=Tenor_sustain_MF_A4.opus
</region>

<region>
hivel=127
key=B4
loop_end=249554
loop_mode=loop_continuous
loop_start=55378
loop_xfade=23528
lovel=0
lpc=ke6PQXMGJ8L/yiZCULzVwXIHg0GGSlHACygFwczO90CrKT7A7sUSvyOQXkBXg0E/+4AfwRXoQEH93efAX03sP/PIg0C3pQfBgifJQMAzx7434dm/MeCVQCn08cBXwJ1A
lpc_rms=-23.29
offset=680
sample=Tenor_sustain_MF_B4.opus
</region>

<region>
hivel=127
key=C#5
loop_end=262370
loop_mode=loop_continuous
loop_start=58222
loop_xfade=24737
lovel=0
lpc=0j8pQcn7tcEFLZBBJP/swAwncECG2ZY/esHuwNVqskC31ry9xozGvqR6uj6KhY0+gHQvwKfp1z8D0aE/xIVgv6rBoT85BXDAb5V7QGYWgr/GO+q/L2mKQHuam8Cd/xpA
lpc_rms=-28.57
offset=750
sample=Tenor_sustain_MF_C#5.opus
</region>

<region>
hivel=127
key=C5
loop_end=247698
loop_mode=loop_continuous
loop_start=54966
loop_xfade=23353
lovel=0
lpc=SjSSQXTBGsIcO/ZBojVfwTKgAEFTG4U/zaX0wFpt0T7x2t1ASB/uwILNAEGeEqDA71FdwFmH9ECxi5bAYvSZP4SJ3r7mSKc/fXIAvz/+pT8IQVfAUQKJQJDUb8Dp0BxA
lpc_rms=-22.23
offset=690
sample=Tenor_sustain_MF_C5.opus
</region>

<region>
hikey=F5
hivel=127
lokey=D5
loop_end=248656
loop_mode=loop_continuous
loop_start=55179
loop_xfade=23444
lovel=0
lpc=ANmHQYZFGsLYpwpCfLpkwYQ6jEBZZALAtkBqwI+8B0GFaQbBXDS4QLiAgj+of/nA34HAQOhdIEAWGtTA5duHQA7fB0Chxa7Afh2FQCiMY8Al4ZpACA2DwJPRD0CmKbo9
lpc_rms=-20.30
offset=5433
pitch_keycenter=D5
sample=Tenor_sustain_MF_D5.opus
</region>

<region>
hivel=127
key=A#3
loop_end=259665
loop_mode=loop_continuous
loop_start=57622
loop_xfade=24482
lovel=0
lpc=X6cLQspZzMLoGQVDhyHowvH6pEJIrjLCnmdxQbFcFsGoLjdBNlw1wCVv8792F8xA/Dd8wSwUTEH9qG7AFa0qQPG0OsCtjtq/c3PQQHb7TcGWxaNBTVSjwQKCSUF3cGjA
lpc_rms=-20.72
offset=584
sample=Tenor_sustain_MF_A#3.opus
</region>

<region>
hivel=127
key=A3
loop_end=258995
loop_mode=loop_continuous
loop_start=57473
loop_xfade=24419
lovel=0
lpc=vlcyQmSpBsON4zVDjKQiw8zH50LhDoDCU2ygQTZ0+b/G8pFAXzv1wPOHb0HFErHB4Ot/QcumsMBWHdE/fboOwKNpUEADzZfApJz0QJGyTsFJWqhBvBfZwYtMqkG3h9zA
lpc_rms=-16.12
offset=3800
sample=Tenor_sustain_MF_A3.opus
</region>

<region>
hivel=127
key=B3
loop_end=263835
loop_mode=loop_continuous
loop_start=58547
loop_xfade=24875
lovel=0
lpc=LXoGQsOxxcKpZghDfuMGwwz75UKRgafCyR9GQryQ3sGTzjdBQPSFQIPY4MBZZS5Bw1anwdkfvkGRNbLBPJhVQcHl0UDVgs3BxCIXQlI+N8Jq7TNCHVn3wUQTYkGUAlbA
lpc_rms=-19.42
offset=662
sample=Tenor_sustain_MF_B3.opus
</region>

<region>
hivel=127
key=C#4
loop_end=247384
loop_mode=loop_continuous
loop_start=54897
loop_xfade=23324
lovel=0
lpc=1K2JQcOGN8JPEWJCjHtKwhdgIUKljMjBXUwEQfY9mb/PTxJA7ACgwCiEAEFpLfbA+Ih9QIDFvT4QM4jAN+GfQD6GE8CclIy+exIGQAfircBfuNJAj7iBwBbIOkBOfrO/
lpc_rms=-25.37
offset=7223
sample=Tenor_sustain_MF_C#4.opus
</region>

<region>
hivel=127
key=C4
loop_end=255980
loop_mode=loop_continuous
loop_start=56804
loop_xfade=24134
lovel=0
lpc=IwFfQrY8GsMofDRDNYINw+cG1ELLdpTCePkrQpydFsIKBSxCPGkOwjheEULfQA7CQ70oQVFPWEFxhy3BqIPAPz0JKMD1yqxA/SFKv/fw8sBwMYdB60Hgwb6p0UHzPRnB
lpc_rms=-15.82
offset=4916
sample=Tenor_sustain_MF_C4.opus
</region>

<region>
hivel=127
key=D#4
loop_end=257898
loop_mode=loop_continuous
loop_start=57230
loop_xfade=24315
lovel=0
lpc=FIT4QV9spsKJ7shCw52pwmEagkII9y7CA2SeQXQrc8HQIqZBWup4wX+XIUFA1gfBAfstQBcZoUBIc8HA7w4OQbygOMGdYr9AXm7gP6AqFsF3ZHJBULFqwWh9AkHjNOS/
lpc_rms=-21.24
offset=5847
sample=Tenor_sustain_MF_D#4.opus
</region>

<region>
hivel=127
key=D4
loop_end=255410
loop_mode=loop_continuous
loop_start=56678
loop_xfade=24080
lovel=0
lpc=OMa8QepOhcKHIa5C1ESgwn+SgkIwyjnCxMW/QYX+O8GNev9AhBLowLPhREG6nUjBHfidQDK4A0BAPpzAg1W4QEcIN8DReg/AxxbKQFD+N8E0AWlBQ5A9wS3K2UBjOw3A
lpc_rms=-21.36
offset=5629
sample=Tenor_sustain_MF_D4.opus
</region>

<region>
hivel=127
key=E3
loop_end=251551
loop_mode=loop_continuous
loop_start=55822
loop_xfade=23717
lovel=0
lpc=mGT2Qa0mo8LxpLtCPpqWwg7HWkJXkwLC4VdqQQMzJsFAW+xAqYkOP1NJkL0MEEE/8heowN4GGUDHYFa/VeoSQNR84j9GRNPA06UJQcPdL8G0D1RBwRFDwV1R4EDP+Mu/
lpc_rms=-20.38
offset=5438
sample=Tenor_sustain_MF_E3.opus
</region>

<region>
hivel=127
key=E4
loop_end=256488
loop_mode=loop_continuous
loop_start=56917
loop_xfade=24182
lovel=0
lpc=QExyQhD8LsPzGVRDB9IpwxlZA0OYt7XC8+0TQsPnxMFL/EdCFlpewh8dTkLLXC/CYALbQTnIWMGIX4g9BHQ0QSHsCcHwH1TA9cb3QIV8TcGJnpVBGjYjwb1kRr/WE+Y/
lpc_rms=-15.27
offset=5029
sample=Tenor_sustain_MF_E4.opus
</region>

<region>
hivel=127
key=F#3
loop_end=253768
loop_mode=loop_continuous
loop_start=56313
loop_xfade=23926
lovel=0
lpc=sbYWQs0v2sKkRw1DTaf0wsXKrUIsBFjCj1X5QWSQuMFZrphBfiR0wbu2pEEubaPBXqTwQAkiWUBYnaPA0nUXPx/KfkAvGAzASheAwHHGqkD11sU/tygJwedA4kC0292/
lpc_rms=-18.21
offset=3164
sample=Tenor_sustain_MF_F#3.opus
</region>

<region>
hivel=127
key=F#4
loop_end=257848
loop_mode=loop_continuous
loop_start=57219
loop_xfade=24310
lovel=0
lpc=+Nb1QQ+fn8Jaw7VC3pKRwsrHZEKKCx7CUEKRQRD+UMFn/JJBhkuKwXeXVkFIFXPAoyglwYGfjkGfyIzBsqZyQZrtL8G/+UBA1ncjQCzGqMC8Px1BuoUEwanXpD969qs/
lpc_rms=-19.94
offset=1965
sample=Tenor_sustain_MF_F#4.opus
</region>

<region>
hivel=127
key=F3
loop_end=253032
loop_mode=loop_continuous
loop_start=56150
loop_xfade=23856
lovel=0
lpc=lEr3QQBassJ9SORCDm7FwiAVlkIhw0XCrvCyQVVm7MCojCpAXHhkPr1rBUAdJ4nAeL+dQJ1umcBMTJU+BAP0vmgtz0AqlN/A2EOsQKWI68BqW9dA29aMwG7Yj0CcvQ3A
lpc_rms=-21.39
offset=4129
sample=Tenor_sustain_MF_F3.opus
</region>

<region>
hivel=127
key=F4
loop_end=270061
loop_mode=loop_continuous
loop_start=59929
loop_xfade=25462
lovel=0
lpc=o3/8QfgTq8LxLcNC5pCSwq6fZUIhoiDCnEtkQYzjBcE+sGlBNP9BwfaqM0G+k9jAClgawfiOlEEs1XnB9fdjQeHlVsHHUB1BEAcDwb+ufUAOooQ/AizcP/0gecAxRPM/
lpc_rms=-19.93
offset=11375
sample=Tenor_sustain_MF_F4.opus
</region>

<region>
hivel=127
key=G#3
loop_end=255294
loop_mode=loop_continuous
loop_start=56652
loop_xfade=24070
lovel=0
lpc=Y+ysQZsOdcIhHp5CbiqOwoKZYUIIaCDCSaG6QS2ZXcGJ9hpBUBrXwD4J80D8HJHA5EADwIzEZECz/27AG1eRQBeo4b9bsRPAI7KnQGXm/sAe6OhA7VgowDyy3T5tati+
lpc_rms=-24.01
offset=1592
sample=Tenor_sustain_MF_G#3.opus
</region>

<region>
hivel=127
key=G#4
loop_end=266683
loop_mode=loop_continuous
loop_start=59179
loop_xfade=25143
lovel=0
lpc=yfFNQTIH7cFKheJBdU2QwdhlWEEWQAPBH5rAv+FygUCNHIS/9CcFP9mqO77+A4Y+q6nzv8c2S0DPPj2/iw3fvxgxUEAY3MHAUWmoQGgJMsCq+zRAeAclwE5MAj/PNF0/
lpc_rms=-25.25
offset=4813
sample=Tenor_sustain_MF_G#4.opus
</region>

<region>
hivel=127
key=G3
loop_end=252710
loop_mode=loop_continuous
loop_start=56079
loop_xfade=23826
lovel=0
lpc=7dovQuNs/MJqShpDNqruwh7JnUJ+JkjCMp2vQQtxoMCahVZAtmpnwKKNiUAZxoJAIqd/wZoujUEuD4DBfQUnQcixn76LxYjAi9ylQOEgEcEn5iZBbsm4wEJ6sj+jS7m9
lpc_rms=-20.39
offset=3652
sample=Tenor_sustain_MF_G3.opus
</region>

<region>
hivel=127
key=G4
loop_end=265906
loop_mode=loop_continuous
loop_start=59007
loop_xfade=25070
lovel=0
lpc=OvR7QTquHsJM4iZCSpzgwVbGn0GDXVfBAjZQQIPGGL9wWT1ACF8hwMULSUDpuKG/N4yowD0sAUEnGsPAeLLNQN7vwcCjN40/avhAQHNYoMCkNchAERxHwD1Mu78TRNA/
lpc_rms=-25.19
offset=12660
sample=Tenor_sustain_MF_G4.opus
</region>

<region>
hivel=127
key=A#2
loop_end=265035
loop_mode=loop_continuous
loop_start=58814
loop_xfade=24988
lovel=0
lpc=xeYfQojkycKqW9FCVqyYwnGWZkKDFCDCMeuxQcTts8HT+wFCIp/UwWG4uUG7ItDBAjOFQZPgjcAgBixA+Ticv8JkV8A7Tm0/Dro8P/Pf/j2DazRAnuvjwNEKEEFwaYnA
lpc_rms=-20.29
sample=Tenor_sustain_MF_A#2.opus
</region>

<region>
hivel=127
key=B2
loop_end=258937
loop_mode=loop_continuous
loop_start=57461
loop_xfade=24413
lovel=0
lpc=EdMQQl1ju8IW9cdC9Z+JwhrTHkK1KaLBaKs1QV2jYcHtxZlB38l0wYBChkFRJ5TB7FPnQPCoYkAH67LA6OHfQAqXysBUGg1AGXNPwC3vnUDCVwPAzB7fPsdyJb/Ms2s+
lpc_rms=-22.20
offset=2651
sample=Tenor_sustain_MF_B2.opus
</region>

<region>
hivel=127
key=C#3
loop_end=260751
loop_mode=loop_continuous
loop_start=57863
loop_xfade=24584
lovel=0
lpc=iH0bQqSkxMKu7thC5qSrwsMzgUJ1XCjCPfaUQcAUP8ESLjBBrf6SwL2FLEE9/T3BD0u2v65Mx0AMMXO/gCU8wCJB/UBdRWvBxU96QZ7ATMGVSVJBUDs2wXtvnEC3q86+
lpc_rms=-18.68
offset=7071
sample=Tenor_sustain_MF_C#3.opus
</region>

<region>
hivel=127
key=C3
loop_end=262891
loop_mode=loop_continuous
loop_start=58338
loop_xfade=24786
lovel=0
lpc=rB4SQjGutsIQUMBCcE2PwgX/U0JS8PbBtj8/QIt0gUCBWCBA6Lu8v1xpHEExb1fBhIfOPaTq3kDjqia/Hg/Wv+vFJcBvLfg/bjPuP41yfMBeOcRAsVIDwaYpx0COW92/
lpc_rms=-18.15
offset=6834
sample=Tenor_sustain_MF_C3.opus
</region>

<region>
hivel=127
key=D#3
loop_end=250106
loop_mode=loop_continuous
loop_start=55501
loop_xfade=23580
lovel=0
lpc=lVG9QXByecKRE45CbbxawhhLGELtsL7BNs9VQeO8acExhIlBQWkjwWbh6kCVrpXAcRGYwN5g9EC0EYbAblZxQFcElsCy6wlAjwRWP0JGNcCwbK9ACcCnwKFa3D/j07w+
lpc_rms=-22.64
offset=2025
sample=Tenor_sustain_MF_D#3.opus
</region>

<region>
hivel=127
key=D3
loop_end=250807
loop_mode=loop_continuous
loop_start=55656
loop_xfade=23647
lovel=0
lpc=WI/dQVcLhMJCD4RCn/E/wv+EB0Li+ajBtH8zQbUmJMGk2AZB8y5EwKaS2EDP2Y7AZ6BpwI9sRUA9rym/8LF/P6jezrxQAYK/ELJVPqUTKcBa3N1AJQrNwALZb0CG4rS/
lpc_rms=-23.72
offset=5261
sample=Tenor_sustain_MF_D3.opus
</region>
</group>

<group>
amp_veltrack=0
ampeg_attack=2.5
ampeg_release=0.35
group_label=Sustain_FF
lpc_hicc1=127
lpc_locc1=85

<region>
hivel=127
key=A#4
loop_end=251193
loop_mode=loop_continuous
loop_start=55742
loop_xfade=23683
lovel=0
lpc=j1T7QEc6hcHaJZ1B1omJwU15LUF8ote/QsW1wClSz0Cql4DA4KmYPsINX0DPsG7A4PKsP9mbWz6ZVse+jLWGvOrG2b6BR40/s4a3v3tn3T+uQF2/ZaDiPcSkwT4p6/U+
lpc_rms=-10.99
offset=969
sample=Tenor_sustain_FF_A#4.opus
</region>

<region>
hivel=127
key=A4
loop_end=250518
loop_mode=loop_continuous
loop_start=55592
loop_xfade=23619
lovel=0
lpc=z+vSQKilTcHtzllBRQhEweh6/UAheNS/G3sewOEfA0AD5As+P50dwBzbnEAvHInA1hPeP0TYHj93Jae/AHW2P73elr/junW/n1XMP9v8679XKjxAA1UkwE+FuD8GVQ8+
lpc_rms=-11.87
offset=2909
sample=Tenor_sustain_FF_A4.opus
</region>

<region>
hivel=127
key=B4
loop_end=259263
loop_mode=loop_continuous
loop_start=57533
loop_xfade=24444
lovel=0
lpc=hP+FQN7e9cAoZARBLqPmwDFxlEAlzUC/tTQ2vw/Qzr5gfbU/50EIwEeS8z8rmhm/FaKTv5J5vD90aGe/hjHkPrClBz6JOAe/NCoeP7rPtL4btDg/lVuBvt2OCL5toAA/
lpc_rms=-13.83
offset=485
sample=Tenor_sustain_FF_B4.opus
</region>

<region>
hivel=127
key=C#5
loop_end=263179
loop_mode=loop_continuous
loop_start=58402
loop_xfade=24813
lovel=0
lpc=TzqEQBy0A8GrRCFBMqkawRs47EABBXzAvpeJP75lP7zIlZ++nuWEvnanaz+mifC9t4Icv6desD/y0ty/61TAPwh4Wr8gn/U9rNRBP7nAmL/lEog/Q83NviiEhz5XL2k+
lpc_rms=-16.25
offset=398
sample=Tenor_sustain_FF_C#5.opus
</region>

<region>
hivel=127
key=C5
loop_end=254045
loop_mode=loop_continuous
loop_start=56375
loop_xfade=23952
lovel=0
lpc=7M7GQIvZOsGSaVVBpncjwVyQx0CjP3s+dZGpwOvAl0BvDqy/T8IdwFNickCNWlLAv7eqPiqzvz+JtQjAg+bXPyb7Uj8oJhXAcmgxQDTFsb8e3qo/EMioPpFFa7/fd3E/
lpc_rms=-12.05
offset=1351
sample=Tenor_sustain_FF_C5.opus
</region>

<region>
hikey=F5
hivel=127
lokey=D5
loop_end=250363
loop_mode=loop_continuous
loop_start=55558
loop_xfade=23605
lovel=0
lpc=//WWQFa/BME2kw5BRUsJwdOF9EDmKrDA8+KYQKUZjsCTo49AAf2NwCD4N0Ciw7O/+g4KP6U9Oz8qFb6/0XzNP1xRgb9V7GY/yN9lv5cqcz8fWW29rp0QPx9aiL8SWoo/
lpc_rms=-15.61
offset=799
pitch_keycenter=D5
sample=Tenor_sustain_FF_D5.opus
</region>

<region>
hivel=127
key=E4
loop_end=269271
loop_mode=loop_continuous
loop_start=59754
loop_xfade=25387
lovel=0
lpc=EY1tQYEqFMIkpS5Cg30cwjht+0GzeJLB/Y5JPhLv3ECXDEnAoogVP5N+JEBhCqbAOHibQI2EPcBxbo5AI8uVwB2VbT+mBII+eu4Mv6ZFcj8SAWk/gFqNwOGqs0CImxXA
lpc_rms=-9.79
offset=6932
sample=Tenor_sustain_FF_E4.opus
</region>

<region>
hivel=127
key=F#4
loop_end=274606
loop_mode=loop_continuous
loop_start=60938
loop_xfade=25890
lovel=0
lpc=rogbQfJFpsF/nqtBWFeIwTNTJEH1jo+/WyCqwK9JCUCV51VAH/GzwPV/ykA7IDPA4sMgwGXlRkAtluY+UOm+v4F+xj/8vxvAjzESvwhPOUAuMZG/cxGnPZOIrL5u5Rk/
lpc_rms=-11.56
offset=5064
sample=Tenor_sustain_FF_F#4.opus
</region>

<region>
hivel=127
key=F4
loop_end=282082
loop_mode=loop_continuous
loop_start=62597
loop_xfade=26595
lovel=0
lpc=JsHlQMXIb8HhVYBBCmFowSEiJ0F/HHfAzKc0v02LGL94hHBA2aqjwLbUp0BLEErAL3i0v21VfUBjqDvAZynZP+Np/r7/xti/Wk3OP6Xkir5ceuQ+7bMROycY0b64qsA+
lpc_rms=-11.85
offset=15169
sample=Tenor_sustain_FF_F4.opus
</region>

<region>
hivel=127
key=G#4
loop_end=268057
loop_mode=loop_continuous
loop_start=59484
loop_xfade=25273
lovel=0
lpc=hvqWQGmuGcEOAihBE0wTwXEf1EBiKgDAWJjEvz0GkD4aWLA/cdXTv/KDJ0BNyOS/B09Zv7ThE0C9u7q/qK1HP3yMyr0Ferm/+MaVPzC+Br/SIg4/MA7qvUkjR79GfXg/
lpc_rms=-14.91
offset=4898
sample=Tenor_sustain_FF_G#4.opus
</region>

<region>
hivel=127
key=G4
loop_end=273365
loop_mode=loop_continuous
loop_start=100047
loop_xfade=25773
lovel=0
lpc=+wqKQI5rD8HLwhBBV13WwH/yfUAGY9G+dawEwDTLIj93YDFAU7uXwNiVnEAHNizAzRkuvyqsFUBx+Ne/wvpAP0Ko9T7Nrey/DI/BPyq60jxSHuy+74AzPu50Eb+BRhU/
lpc_rms=-17.22
offset=75906
sample=Tenor_sustain_FF_G4.opus
</region>

<region>
hivel=127
key=C#4
loop_end=268284
loop_mode=loop_continuous
loop_start=59535
loop_xfade=25294
lovel=0
lpc=s6DPQOYIY8EyyXxBTm1WwWhyCkFY+Q/A9q1VwLsxNEDKGUU/wz9IwL46rUAw4bzA2/94QNALBMCOAyVAq80mwBg03z+zdvm/PpzJP7cBT7+nCrY/x3sZwPwaBkDI8gO/
lpc_rms=-16.40
offset=4036
sample=Tenor_sustain_FF_C#4.opus
</region>

<region>
hivel=127
key=C4
loop_end=276643
loop_mode=loop_continuous
loop_start=61390
loop_xfade=26082
lovel=0
lpc=WkRMQfUi5sG6d/JBmyi8wTApQ0Fo/NI/0U02wejszkC8H7FA1DQzwa3uU0EtESfBEw1oQFDkUD9nuJ0/v8CUwAcQkECoGmbAPurDP+p2mT8Jj5W/pSAPv94m2D+cH02/
lpc_rms=-12.35
offset=5069
sample=Tenor_sustain_FF_C4.opus
</region>

<region>
hivel=127
key=D#4
loop_end=268140
loop_mode=loop_continuous
loop_start=59503
loop_xfade=25281
lovel=0
lpc=2wTuQHjmfcG0Pn5BCZJPwVMTEkHxui3ADUW1vy/T4b+v06dARgqxwLBT50CaIbzA2OKuvBNVO0CyUcO/XVyRPz2WJb5YkxvAKWnwPy6y4D08Xlq+p/eBP9P39L89Sok/
lpc_rms=-13.49
offset=6834
sample=Tenor_sustain_FF_D#4.opus
</region>

<region>
hivel=127
key=D4
loop_end=269055
loop_mode=loop_continuous
loop_start=59706
loop_xfade=25367
lovel=0
lpc=hjguQfEdzMFORuhBL1PLwW8agEGKCULAAjnFwGfou0D6EoW/CAZSwONE9ED23MrAznBAPj9Bc0Dp/HzADFA9QKPC6L+cywi6A8InP1GaHj+tWj6/pdblvJfZJz4P79q8
lpc_rms=-11.33
offset=6874
sample=Tenor_sustain_FF_D4.opus
</region>

<region>
hivel=127
key=A#3
loop_end=270448
loop_mode=loop_continuous
loop_start=60015
loop_xfade=25498
lovel=0
lpc=Zo4vQcTq0MH6YOdBn6K5wcZWa0H/7aHAPLsZwE4joT00ld9A8uACwVG8vkBiagvAgRAVwNbDRkBFxVs/47tFwAbvzz8+pp6/yzBsPqsWpD+tdf8+7b5nwC7+fUABYK6/
lpc_rms=-15.51
offset=335
sample=Tenor_sustain_FF_A#3.opus
</region>

<region>
hivel=127
key=A3
loop_end=259245
loop_mode=loop_continuous
loop_start=57529
loop_xfade=24442
lovel=0
lpc=pDgrQSXWwsGlSNFB6dqrwdiZVUFR9YTAyQoBwD58N7/QVPNAdvgDwfGOo0DWfRq/sVM+wKlhSUDLok2/6IQXwFR+L0DizKi/lbJiv+dOxz+noBc/d2zXv8OwCEAkkKG/
lpc_rms=-13.48
sample=Tenor_sustain_FF_A3.opus
</region>

<region>
hivel=127
key=B3
loop_end=272497
loop_mode=loop_continuous
loop_start=60470
loop_xfade=25691
lovel=0
lpc=zVgcQWTPuMG1v9JBEGytweDYWkH4SqTA/N9Lvu7GPcDfmv1Ag4/pwMGdt0DaWILA+cFoPzBjI74JDQxAnc/bv2cYir9X3bg/j++Wv/YOsj4sth9A2puPwAq9QUCX9ra+
lpc_rms=-14.30
offset=698
sample=Tenor_sustain_FF_B3.opus
</region>

<region>
hivel=127
key=G#3
loop_end=269105
loop_mode=loop_continuous
loop_start=59717
loop_xfade=25372
lovel=0
lpc=X1KmQBk3MMHb5DpBIukYwRZ7x0AKmCXAYfiUPgIar78kr1FAs/9CwFBZ6z+ME5k9n3S/vxoOjD87DRQ/zaywvw5Jgj9gTAy/0kUev53tbj98qC6+aNATvxqxTz/GPQu+
lpc_rms=-20.92
sample=Tenor_sustain_FF_G#3.opus
</region>

<region>
hivel=127
key=E3
loop_end=249022
loop_mode=loop_continuous
loop_start=55260
loop_xfade=23478
lovel=0
lpc=JXphQb4QDcLylyhCUvwXwugZ/EHw3cLB+LB3QdwVQsG+s1RBYCYXwQ32oECBn6PAKhObQIOLcb8kL2a/3ZeLv5va0z5BwUFAkx2bwHw2ckCFqbC/h8A6P4AyLj7BFQ+/
lpc_rms=-15.83
offset=719
sample=Tenor_sustain_FF_E3.opus
</region>

<region>
hivel=127
key=F#3
loop_end=261128
loop_mode=loop_continuous
loop_start=57947
loop_xfade=24620
lovel=0
lpc=mZdYQcQVA8JYeBhCR0MGwkiit0HaMyHBfR45QJWHxMAY3SJB850IwVcH4UAX8HbAFsoLwEgsrkCuJYTAh3qzP1zi4j4XsNC/M/7lP1MU0L91wUtAWP9wwJGINkCl8Zm/
lpc_rms=-13.14
offset=1881
sample=Tenor_sustain_FF_F#3.opus
</region>

<region>
hivel=127
key=F3
loop_end=265677
loop_mode=loop_continuous
loop_start=58956
loop_xfade=25048
lovel=0
lpc=CRAiQQHys8HcHclBPQO8wW+EkEEhqg3B/naWP0XeED71+90+nqbuvR4yCkDQ2eu/pjHPvxPca0AMbzjAv3bsP8pQvr87QFk+tLOIviy+B7/8yxRAVgPUvyqnZT8T1hC+
lpc_rms=-14.02
offset=654
sample=Tenor_sustain_FF_F3.opus
</region>

<region>
hivel=127
key=G3
loop_end=275232
loop_mode=loop_continuous
loop_start=61077
loop_xfade=25949
lovel=0
lpc=bCRRQS2FBMIF7SFCJ/sSwqIb1kEdMF3BcVYuQIXwP78JAYZAPtGUwH4zWEDH5LI+zoipwBIg1kCqMW3AoLoGPw695D5AB4S/IUUEP+VnBb9HdVBAPMKywCY3kkCLAb+/
lpc_rms=-15.18
offset=12356
sample=Tenor_sustain_FF_G3.opus
</region>

<region>
hivel=127
key=A#2
loop_end=258894
loop_mode=loop_continuous
loop_start=57451
loop_xfade=24409
lovel=0
lpc=ITR2QRusGcL72jFCUoUXwsPu80HkqqvBsbnUQNeH7z8/FVS/rq4RwHkwtECTU87A3390QAajmj/Ya2DA44UvQMZmVcBJvKhAuAtrwHH55T3Eh1s/gG0rPcIjy74LjxW9
lpc_rms=-14.48
offset=2568
sample=Tenor_sustain_FF_A#2.opus
</region>

<region>
hivel=127
key=B2
loop_end=270113
loop_mode=loop_continuous
loop_start=59941
loop_xfade=25467
lovel=0
lpc=SQscQQghusEXnOpBzc7twVXIz0FjL5vBVf0vQRVl6sCiPMNAuwGFwBm0mEC/xrbA/bJjQEFhsz9kf5DA5yjDQAak1cBojK9AxARKwKzfgD/N6oE/iiwXwER8BkDf8G6/
lpc_rms=-16.97
offset=4958
sample=Tenor_sustain_FF_B2.opus
</region>

<region>
hivel=127
key=C#3
loop_end=271616
loop_mode=loop_continuous
loop_start=60274
loop_xfade=25608
lovel=0
lpc=CQFgQeIy+MFFCgNC98LdwZs7t0HqCYPB8xWkQHJZxL4ipqw/UnVoP9D2CsCqKUM/7QS8viZbXkDyuUbAhxRMvChpML8T1FNAvgt1wJuXyT/f3JK+oW6eP1No5b5EfVK+
lpc_rms=-13.23
offset=1269
sample=Tenor_sustain_FF_C#3.opus
</region>

<region>
hivel=127
key=C3
loop_end=273020
loop_mode=loop_continuous
loop_start=60586
loop_xfade=25741
lovel=0
lpc=/lNxQeroCMJNjBZCBtcFwiz410FGfoTBLKbvP+i8V0ARbCE/b6VTwB45ckBGLmjAcIlxQFSMoj0GVd6/pWYdvxtepj+Bu3c/YNjxv5V2lz6tKAi+PvSsP3In+b+vUYc/
lpc_rms=-13.36
offset=2860
sample=Tenor_sustain_FF_C3.opus
</region>

<region>
hivel=127
key=D#3
loop_end=266597
loop_mode=loop_continuous
loop_start=59160
loop_xfade=25135
lovel=0
lpc=eorNQDVKXsGr1HVB3zZgwWMJPUFJ4wPBLnk2QGMWV79XMwNAgl/ovyDd4D+z8UvA6X18QDQH5r+gW968hIFJPpoRqr+hTClARqs1wMOE1j/8LRy/huFEP27cT72ENIG+
lpc_rms=-18.59
offset=3481
sample=Tenor_sustain_FF_D#3.opus
</region>

<region>
hivel=127
key=D3
loop_end=274228
loop_mode=loop_continuous
loop_start=60854
loop_xfade=25855
lovel=0
lpc=T0QtQWws2cFbmQZCbUECwvpd7UEcrb/B8YZ7QT+HMsE78iVBJpQswbRpKkHS+fTAARoHQGqNUEAhSq7A4pabQNKgcMBYJxJAo+ejP2PkacAULGFAQPIrwALYvT9lqoS+
lpc_rms=-14.99
offset=4703
sample=Tenor_sustain_FF_D3.opus
</region>
</group>

<group>
amp_veltrack=0
ampeg_decay=20
ampeg_sustain=0
group_label=Scoop_PP
lpc_hicc1=42
lpc_locc1=0

<region>
hikey=a#3
hivel=42
lokey=a3
lovel=0
offset=4800
pitch_keycenter=a#3
sample=Tenor_scoop_PP_A#3.opus
tune=+6
</region>

<region>
hikey=a#4
hivel=42
lokey=a4
lovel=0
offset=138
pitch_keycenter=a#4
sample=Tenor_scoop_PP_A#4.opus
tune=-16
</region>

<region>
hikey=c4
hivel=42
lokey=b3
lovel=0
offset=3267
pitch_keycenter=c4
sample=Tenor_scoop_PP_C4.opus
tune=-22
</region>

<region>
hikey=c5
hivel=42
lokey=b4
lovel=0
offset=14
pitch_keycenter=c5
sample=Tenor_scoop_PP_C5.opus
tune=-21
</region>

<region>
hikey=d4
hivel=42
lokey=c#4
lovel=0
offset=1424
pitch_keycenter=d4
sample=Tenor_scoop_PP_D4.opus
tune=-2
</region>

<region>
hikey=F5
hivel=42
lokey=c#5
lovel=0
offset=4929
pitch_keycenter=d5
sample=Tenor_scoop_PP_D5.opus
tune=-27
</region>

<region>
hikey=e4
hivel=42
lokey=d#4
lovel=0
offset=998
pitch_keycenter=e4
sample=Tenor_scoop_PP_E4.opus
tune=+6
</region>

<region>
hikey=f#4
hivel=42
lokey=f4
lovel=0
offset=839
pitch_keycenter=f#4
sample=Tenor_scoop_PP_F#4.opus
</region>

<region>
hikey=g#4
hivel=42
lokey=g4
lovel=0
offset=635
pitch_keycenter=g#4
sample=Tenor_scoop_PP_G#4.opus
tune=-17
</region>

<region>
hivel=42
key=a#2
lovel=0
offset=13144
sample=Tenor_scoop_PP_A#2.opus
tune=-4
</region>

<region>
hikey=c3
hivel=42
lokey=b2
lovel=0
offset=9537
pitch_keycenter=c3
sample=Tenor_scoop_PP_C3.opus
tune=-2
</region>

<region>
hikey=d3
hivel=42
lokey=c#3
lovel=0
offset=2665
pitch_keycenter=d3
sample=Tenor_scoop_PP_D3.opus
tune=+4
</region>

<region>
hikey=e3
hivel=42
lokey=d#3
lovel=0
offset=3320
pitch_keycenter=e3
sample=Tenor_scoop_PP_E3.opus
</region>

<region>
hikey=f#3
hivel=42
lokey=f3
lovel=0
offset=645
pitch_keycenter=f#3
sample=Tenor_scoop_PP_F#3.opus
tune=+12
</region>

<region>
hikey=g#3
hivel=42
lokey=g3
lovel=0
offset=6038
pitch_keycenter=g#3
sample=Tenor_scoop_PP_G#3.opus
tune=+6
</region>
</group>

<group>
amp_veltrack=0
ampeg_decay=20
ampeg_sustain=0
group_label=Scoop_MF
lpc_hicc1=84
lpc_locc1=43
volume=-2

<region>
hikey=a#4
hivel=84
lokey=a4
lovel=43
offset=4565
pitch_keycenter=a#4
sample=Tenor_scoop_MF_A#4.opus
tune=-1
</region>

<region>
hikey=c4
hivel=84
lokey=b3
lovel=43
offset=9039
pitch_keycenter=c4
sample=Tenor_scoop_MF_C4.opus
tune=-18
</region>

<region>
hikey=c5
hivel=84
lokey=b4
lovel=43
offset=247
pitch_keycenter=c5
sample=Tenor_scoop_MF_C5.opus
tune=-1
</region>

<region>
hikey=d4
hivel=84
lokey=c#4
lovel=43
offset=595
pitch_keycenter=d4
sample=Tenor_scoop_MF_D4.opus
tune=+3
</region>

<region>
hikey=F5
hivel=84
lokey=c#5
lovel=43
offset=5332
pitch_keycenter=d5
sample=Tenor_scoop_MF_D5.opus
tune=-3
</region>

<region>
hikey=e4
hivel=84
lokey=d#4
lovel=43
offset=1895
pitch_keycenter=e4
sample=Tenor_scoop_MF_E4.opus
tune=+10
</region>

<region>
hikey=f#4
hivel=84
lokey=f4
lovel=43
offset=465
pitch_keycenter=f#4
sample=Tenor_scoop_MF_F#4.opus
tune=-5
</region>

<region>
hikey=g#4
hivel=84
lokey=g4
lovel=43
offset=749
pitch_keycenter=g#4
sample=Tenor_scoop_MF_G#4.opus
tune=+5
</region>

<region>
hivel=84
key=a#2
lovel=43
offset=1391
sample=Tenor_scoop_MF_A#2.opus
tune=-4
</region>

<region>
hikey=a#3
hivel=84
lokey=a3
lovel=43
offset=2625
pitch_keycenter=a#3
sample=Tenor_scoop_MF_A#3.opus
tune=+11
</region>

<region>
hikey=c3
hivel=84
lokey=b2
lovel=43
offset=5223
pitch_keycenter=c3
sample=Tenor_scoop_MF_C3.opus
tune=+1
</region>

<region>
hikey=d3
hivel=84
lokey=c#3
lovel=43
offset=4859
pitch_keycenter=d3
sample=Tenor_scoop_MF_D3.opus
tune=+10
</region>

<region>
hikey=e3
hivel=84
lokey=d#3
lovel=43
offset=3723
pitch_keycenter=e3
sample=Tenor_scoop_MF_E3.opus
tune=+4
</region>

<region>
hikey=f#3
hivel=84
lokey=f3
lovel=43
offset=8846
pitch_keycenter=f#3
sample=Tenor_scoop_MF_F#3.opus
tune=+13
</region>

<region>
hikey=g#3
hivel=84
lokey=g3
lovel=43
offset=509
pitch_keycenter=g#3
sample=Tenor_scoop_MF_G#3.opus
tune=+15
</region>
</group>

<group>
amp_veltrack=0
ampeg_decay=20
ampeg_sustain=0
group_label=Scoop_FF
lpc_hicc1=127
lpc_locc1=85
volume=-2

<region>
hikey=a#3
hivel=127
lokey=a3
lovel=85
offset=4785
pitch_keycenter=a#3
sample=Tenor_scoop_FF_A#3.opus
tune=+1
</region>

<region>
hikey=a#4
hivel=127
lokey=a4
lovel=85
offset=3994
pitch_keycenter=a#4
sample=Tenor_scoop_FF_A#4.opus
tune=-9
</region>

<region>
hikey=c3
hivel=127
lokey=b2
lovel=85
offset=1538
pitch_keycenter=c3
sample=Tenor_scoop_FF_C3.opus
tune=-6
</region>

<region>
hikey=c4
hivel=127
lokey=b3
lovel=85
offset=5605
pitch_keycenter=c4
sample=Tenor_scoop_FF_C4.opus
tune=-14
</region>

<region>
hikey=c5
hivel=127
lokey=b4
lovel=85
offset=169
pitch_keycenter=c5
sample=Tenor_scoop_FF_C5.opus
tune=-8
</region>

<region>
hikey=d3
hivel=127
lokey=c#3
lovel=85
offset=5709
pitch_keycenter=d3
sample=Tenor_scoop_FF_D3.opus
tune=+21
</region>

<region>
hikey=d4
hivel=127
lokey=c#4
lovel=85
offset=2221
pitch_keycenter=d4
sample=Tenor_scoop_FF_D4.opus
tune=-4
</region>

<region>
hikey=F5
hivel=127
lokey=c#5
lovel=85
offset=5941
pitch_keycenter=d5
sample=Tenor_scoop_FF_D5.opus
tune=-6
</region>

<region>
hikey=e3
hivel=127
lokey=d#3
lovel=85
offset=4001
pitch_keycenter=e3
sample=Tenor_scoop_FF_E3.opus
tune=+13
</region>

<region>
hikey=e4
hivel=127
lokey=d#4
lovel=85
offset=1578
pitch_keycenter=e4
sample=Tenor_scoop_FF_E4.opus
tune=+6
</region>

<region>
hikey=f#3
hivel=127
lokey=f3
lovel=85
offset=6461
pitch_keycenter=f#3
sample=Tenor_scoop_FF_F#3.opus
tune=+18
</region>

<region>
hikey=f#4
hivel=127
lokey=f4
lovel=85
offset=1590
pitch_keycenter=f#4
sample=Tenor_scoop_FF_F#4.opus
tune=-5
</region>

<region>
hikey=g#3
hivel=127
lokey=g3
lovel=85
offset=3829
pitch_keycenter=g#3
sample=Tenor_scoop_FF_G#3.opus
tune=+13
</region>

<region>
hikey=g#4
hivel=127
lokey=g4
lovel=85
offset=1934
pitch_keycenter=g#4
sample=Tenor_scoop_FF_G#4.opus
tune=-1
</region>

<region>
hivel=127
key=a#2
lovel=85
offset=1048
sample=Tenor_scoop_FF_A#2.opus
tune=+2
</region>
</group>